<?xml version="1.0" encoding="iso-8859-1"?>
<!-- Generator: Adobe Illustrator 19.0.0, SVG Export Plug-In . SVG Version: 6.00 Build 0)  -->
<svg version="1.1" id="Layer_1" xmlns="http://www.w3.org/2000/svg" xmlns:xlink="http://www.w3.org/1999/xlink" x="0px" y="0px"
	 viewBox="0 0 512 512" style="enable-background:new 0 0 512 512;" xml:space="preserve">
<g>
	<g>
		<path d="M511.739,209.093L485.904,96.418c-1.082-4.723-4.763-6.418-6.295-6.927c-0.659-0.22-1.768-0.5-3.11-0.5
			c-1.781,0-3.973,0.495-6.081,2.282l-16.449,13.961c-1.562,1.325-3.465,2.182-5.492,2.472l-14.677,2.103l25.207,109.933
			l14.128-4.503c1.95-0.622,4.039-0.679,6.02-0.167l20.889,5.399c4.699,1.214,7.892-1.275,9.048-2.4
			C510.247,216.946,512.823,213.817,511.739,209.093z"/>
	</g>
</g>
<g>
	<g>
		<path d="M412.209,112.902l-306.747,43.941c-23.801,3.251-44.372,15.886-57.992,35.588c-11.381,16.464-16.404,35.726-14.633,55.235
			l-20.176,4.627c-0.396,0.09-0.776,0.21-1.157,0.328c-8.089,2.488-13.01,10.826-11.089,19.206
			c1.731,7.55,8.446,12.662,15.875,12.662c1.206,0,2.432-0.135,3.658-0.416l0.263-0.06l21.665-4.969
			c5.99,11.692,14.631,21.757,25.453,29.547c-0.003-0.363-0.014-0.724-0.014-1.087c0-75.674,61.566-137.24,137.24-137.24
			c58.915,0,109.273,37.318,128.691,89.555l104.977-33.456L412.209,112.902z"/>
	</g>
</g>
<g>
	<g>
		<path d="M204.557,192c-63.69,0-115.504,51.815-115.504,115.504s51.815,115.505,115.504,115.505s115.504-51.815,115.504-115.505
			S268.246,192,204.557,192z M204.557,368.187c-33.461,0-60.682-27.223-60.682-60.682c0-33.46,27.221-60.682,60.682-60.682
			c33.461,0,60.684,27.223,60.684,60.682C265.24,340.965,238.018,368.187,204.557,368.187z"/>
	</g>
</g>
<g>
	<g>
		<path d="M204.557,268.558c-21.474,0-38.946,17.472-38.946,38.946c0,21.476,17.472,38.946,38.946,38.946
			c21.476,0,38.946-17.472,38.946-38.946C243.503,286.03,226.032,268.558,204.557,268.558z"/>
	</g>
</g>
<g>
</g>
<g>
</g>
<g>
</g>
<g>
</g>
<g>
</g>
<g>
</g>
<g>
</g>
<g>
</g>
<g>
</g>
<g>
</g>
<g>
</g>
<g>
</g>
<g>
</g>
<g>
</g>
<g>
</g>
</svg>
